#!OML:ASF E:\emotionWalksFemale\Project 1\Capture day 1\Session 1\Female1.ASF
:FULLY-SPECIFIED
:DEGREES
277
root 8.04671 15.4611 18.8501 -180.575 -2.98932 -176.372
lowerback 5.38119 -0.396344 1.54945
upperback -4.70902 -0.468062 0.848705
thorax -7.96949 -0.347304 0.0884259
lowerneck -7.15538 -2.00804 -5.01182
upperneck 15.1999 -3.01994 3.0495
head 5.89017 -1.72113 1.55061
rclavicle 7.45443e-016 9.93923e-016
rhumerus -43.5376 5.89748 -88.9793
rradius 33.7814
rwrist 16.0983
rhand -0.495539 -53.5992
rfingers 7.12502
rthumb 25.1156 -81.9673
lclavicle 7.45443e-016 9.93923e-016
lhumerus -45.5659 -0.305438 85.6801
lradius 35.8928
lwrist -13.2039
lhand -0.281044 -33.0848
lfingers 7.12502
lthumb 25.3212 -4.74562
rfemur -10.0083 16.6798 29.8333
rtibia 16.0614
rfoot -10.1987 -31.924
rtoes 19.6038
lfemur -0.599436 1.77573 -16.9587
ltibia 53.4085
lfoot 4.62559 8.32413
ltoes -8.13239
278
root 8.0702 15.4648 18.747 -180.508 -2.32804 -175.71
lowerback 5.74443 -0.11949 2.30272
upperback -4.78563 -0.0148459 0.940776
thorax -8.26252 -0.170832 -0.289717
lowerneck -7.1234 -2.06277 -5.10618
upperneck 14.9635 -3.09803 3.29335
head 5.81866 -1.73837 1.63867
rclavicle -2.73329e-016 5.36719e-015
rhumerus -43.4766 6.12857 -88.9987
rradius 34.0564
rwrist 15.835
rhand -0.241574 -53.6992
rfingers 7.12502
rthumb 25.359 -82.033
lclavicle -2.73329e-016 5.36719e-015
lhumerus -45.6244 -1.03097 85.9389
lradius 35.9864
lwrist -13.0103
lhand -1.90229 -33.426
lfingers 7.12502
lthumb 23.7671 -4.87585
rfemur -8.88608 16.4087 30.8145
rtibia 14.3559
rfoot -9.49268 -31.1398
rtoes 20.9936
lfemur -2.2569 2.94892 -15.983
ltibia 56.1465
lfoot 6.60984 7.95436
ltoes -10.7495
279
root 8.10246 15.4695 18.631 -180.486 -2.70318 -175.084
lowerback 5.81238 -0.165251 2.85738
upperback -4.8164 -0.0192617 1.05253
thorax -8.33862 -0.205845 -0.481047
lowerneck -6.9491 -2.13288 -5.03658
upperneck 14.6713 -3.19083 3.30718
head 5.70045 -1.7726 1.62755
rclavicle 7.35503e-015 -1.98785e-014
rhumerus -43.3956 6.5307 -89.1337
rradius 34.1839
rwrist 15.078
rhand -1.34395 -53.2918
rfingers 7.12502
rthumb 24.3025 -81.7713
lclavicle 7.35503e-015 -1.98785e-014
lhumerus -45.6745 -1.6568 86.174
lradius 36.0649
lwrist -12.82
lhand -2.12702 -33.4049
lfingers 7.12502
lthumb 23.5516 -4.82687
rfemur -7.53628 16.3871 31.7772
rtibia 12.5515
rfoot -8.11685 -31.3688
rtoes 20.7047
lfemur -4.0845 3.17287 -14.9832
ltibia 58.7829
lfoot 8.32788 7.73405
ltoes -9.19593
280
root 8.1283 15.4707 18.52 -180.497 -2.64057 -174.461
lowerback 5.90565 -0.0641715 3.45846
upperback -4.77824 0.182515 1.17667
thorax -8.34788 -0.140125 -0.712623
lowerneck -6.78554 -2.19415 -4.94669
upperneck 14.2752 -3.25459 3.27429
head 5.54974 -1.79092 1.60115
rclavicle -3.97569e-015 7.95139e-016
rhumerus -43.1957 7.04596 -89.2073
rradius 34.4332
rwrist 14.4501
rhand -2.63008 -52.8027
rfingers 7.12502
rthumb 23.0689 -81.4418
lclavicle -3.97569e-015 7.95139e-016
lhumerus -45.4191 -1.76424 86.2095
lradius 35.8382
lwrist -13.1386
lhand -1.78265 -33.5387
lfingers 7.12502
lthumb 23.8818 -5.0035
rfemur -6.0723 16.3914 32.7337
rtibia 10.5529
rfoot -5.96514 -31.0621
rtoes 17.7972
lfemur -5.78513 3.70713 -14.0669
ltibia 61.299
lfoot 8.17066 7.79526
ltoes -5.7198
281
root 8.15339 15.4587 18.4014 -180.834 -3.53138 -173.73
lowerback 6.0401 -0.323246 4.1748
upperback -4.57955 -0.0799224 1.33149
thorax -8.22799 -0.299077 -0.917424
lowerneck -6.88605 -2.28547 -5.07039
upperneck 14.0314 -3.35916 3.4813
head 5.50099 -1.82241 1.67907
rclavicle 1.23246e-014 -1.11319e-014
rhumerus -42.9109 7.38284 -89.0984
rradius 34.6666
rwrist 14.3914
rhand -3.20989 -52.1013
rfingers 7.12502
rthumb 22.5125 -80.809
lclavicle 1.23246e-014 -1.11319e-014
lhumerus -45.017 -1.7889 86.2235
lradius 35.5288
lwrist -13.4834
lhand -2.20272 -34.1154
lfingers 7.12502
lthumb 23.4789 -5.52815
rfemur -4.23176 15.593 33.9487
rtibia 8.63924
rfoot -6.02813 -31.1195
rtoes 19.241
lfemur -7.23936 3.30857 -13.0337
ltibia 63.6739
lfoot 7.77003 7.49886
ltoes -3.56012
282
root 8.17293 15.4505 18.3022 -180.749 -3.39729 -173.112
lowerback 6.27505 -0.195324 4.85996
upperback -4.63842 0.171833 1.41818
thorax -8.4216 -0.221971 -1.23998
lowerneck -6.97335 -2.4461 -5.24816
upperneck 13.963 -3.58296 3.76785
head 5.51268 -1.91642 1.78151
rclavicle 1.14301e-015 5.56597e-015
rhumerus -42.7831 7.62144 -89.085
rradius 34.7322
rwrist 14.0132
rhand -3.0766 -52.0396
rfingers 7.12502
rthumb 22.6404 -80.7317
lclavicle 1.14301e-015 5.56597e-015
lhumerus -44.8781 -2.24745 86.3489
lradius 35.4254
lwrist -13.4668
lhand -3.03301 -34.8493
lfingers 7.12502
lthumb 22.6823 -6.16228
rfemur -3.1912 15.8496 34.7804
rtibia 7.10597
rfoot -5.48556 -31.1735
rtoes 19.6407
lfemur -8.96506 3.82253 -12.2772
ltibia 65.8594
lfoot 6.98881 7.18674
ltoes -3.87204
283
root 8.19476 15.4421 18.2042 -180.593 -3.37388 -172.77
lowerback 6.40312 -0.0706556 5.23704
upperback -4.68697 0.383763 1.43624
thorax -8.5384 -0.146012 -1.45934
lowerneck -6.95601 -2.58947 -5.2752
upperneck 13.7553 -3.76805 3.85821
head 5.4561 -1.99528 1.80205
rclavicle 4.96962e-016 -1.23246e-014
rhumerus -42.4641 7.84198 -89.0489
rradius 34.6436
rwrist 13.5362
rhand -3.6852 -52.3972
rfingers 7.12502
rthumb 22.0562 -81.1594
lclavicle 4.96962e-016 -1.23246e-014
lhumerus -44.7436 -2.67322 86.5008
lradius 35.3667
lwrist -13.5387
lhand -3.35786 -34.9991
lfingers 7.12502
lthumb 22.3705 -6.2743
rfemur -2.5226 16.0243 35.3247
rtibia 6.22651
rfoot -4.92235 -31.2048
rtoes 19.0123
lfemur -10.7821 4.16133 -11.8819
ltibia 67.8193
lfoot 5.92192 6.78053
ltoes -6.31949
284
root 8.21398 15.4296 18.0995 -180.577 -3.52173 -172.55
lowerback 6.46354 -0.0541963 5.47106
upperback -4.64159 0.435005 1.48171
thorax -8.52222 -0.132573 -1.5493
lowerneck -6.76335 -2.65886 -5.33229
upperneck 13.3189 -3.83514 3.89998
head 5.29303 -2.01958 1.82396
rclavicle -8.34896e-015 -4.37326e-015
rhumerus -41.9973 7.97828 -88.7752
rradius 34.3963
rwrist 13.9827
rhand -4.72866 -52.2148
rfingers 7.12502
rthumb 21.0541 -81.0918
lclavicle -8.34896e-015 -4.37326e-015
lhumerus -44.5333 -2.52808 86.5073
lradius 35.2031
lwrist -13.9736
lhand -3.74744 -34.9992
lfingers 7.12502
lthumb 21.9965 -6.22999
rfemur -2.00403 15.9974 35.7718
rtibia 5.99628
rfoot -5.35334 -31.4673
rtoes 19.5853
lfemur -12.4049 4.18459 -11.6711
ltibia 69.4985
lfoot 4.94868 6.54324
ltoes -7.38075
285
root 8.23198 15.4171 17.9911 -180.684 -3.66418 -172.386
lowerback 6.56412 -0.00379425 5.62553
upperback -4.5533 0.527961 1.4964
thorax -8.4793 -0.0914106 -1.63398
lowerneck -6.52962 -2.76985 -5.4192
upperneck 12.8603 -3.97039 4.02872
head 5.12219 -2.07435 1.87399
rclavicle 1.07344e-014 1.51076e-014
rhumerus -41.6539 7.96685 -88.4517
rradius 34.0942
rwrist 14.6576
rhand -5.16302 -52.0037
rfingers 7.12502
rthumb 20.6368 -80.9266
lclavicle 1.07344e-014 1.51076e-014
lhumerus -44.2276 -2.38391 86.4514
lradius 34.911
lwrist -14.5905
lhand -4.50244 -35.1942
lfingers 7.12502
lthumb 21.2714 -6.34146
rfemur -1.70004 15.9435 36.1968
rtibia 6.49375
rfoot -6.25005 -31.8674
rtoes 19.8269
lfemur -13.845 4.08895 -11.5554
ltibia 70.9208
lfoot 3.22339 5.86609
ltoes -9.79483
286
root 8.25402 15.41 17.8849 -180.736 -3.6901 -172.337
lowerback 6.59186 0.132503 5.60445
upperback -4.43254 0.712017 1.43993
thorax -8.35048 0.00744934 -1.70881
lowerneck -6.37191 -2.91341 -5.43622
upperneck 12.4302 -4.16238 4.21636
head 4.97632 -2.14992 1.9263
rclavicle 1.30204e-014 3.53837e-014
rhumerus -41.2922 7.93926 -88.3041
rradius 33.713
rwrist 14.7559
rhand -5.14117 -52.3667
rfingers 7.12502
rthumb 20.6578 -81.2873
lclavicle 1.30204e-014 3.53837e-014
lhumerus -43.7927 -2.34526 86.3299
lradius 34.5165
lwrist -15.3241
lhand -5.15519 -35.3749
lfingers 7.12502
lthumb 20.6443 -6.45274
rfemur -1.61045 16.0191 36.53
rtibia 7.38521
rfoot -7.24647 -32.2479
rtoes 19.4921
lfemur -15.2996 4.05675 -11.5834
ltibia 72.1077
lfoot 1.97342 5.25732
ltoes -11.9453
287
root 8.2789 15.4014 17.7833 -180.647 -3.71314 -172.41
lowerback 6.59731 0.229957 5.37673
upperback -4.40194 0.821381 1.3827
thorax -8.31261 0.0764583 -1.6576
lowerneck -6.18281 -2.99391 -5.52353
upperneck 12.1036 -4.28983 4.51947
head 4.85815 -2.19588 2.03036
rclavicle -1.83876e-015 5.96354e-015
rhumerus -40.9023 8.02734 -88.2546
rradius 33.2826
rwrist 14.8854
rhand -3.33111 -53.9998
rfingers 7.12502
rthumb 22.3962 -82.7215
lclavicle -1.83876e-015 5.96354e-015
lhumerus -43.5105 -2.1122 86.1323
lradius 34.2171
lwrist -15.9308
lhand -5.75991 -35.4883
lfingers 7.12502
lthumb 20.0631 -6.50416
rfemur -1.75001 16.1395 36.718
rtibia 8.43724
rfoot -8.46927 -32.5435
rtoes 20.0684
lfemur -16.8668 4.05024 -11.7845
ltibia 73.0605
lfoot 1.18698 4.98997
ltoes -11.1277
288
root 8.29866 15.3859 17.6819 -180.595 -3.74553 -172.577
lowerback 6.70347 0.290816 5.10549
upperback -4.40251 0.884509 1.31165
thorax -8.37163 0.122164 -1.59104
lowerneck -5.95494 -3.01716 -5.63084
upperneck 11.8036 -4.34098 4.80905
head 4.73835 -2.20902 2.13891
rclavicle 8.29926e-015 -2.50469e-014
rhumerus -40.4268 7.87919 -87.9584
rradius 32.7392
rwrist 16.2467
rhand -3.75108 -53.3934
rfingers 7.12502
rthumb 21.993 -82.1631
lclavicle 8.29926e-015 -2.50469e-014
lhumerus -43.342 -1.92102 86.0137
lradius 34.0379
lwrist -16.3405
lhand -6.30115 -35.3361
lfingers 7.12502
lthumb 19.5428 -6.29832
rfemur -1.85796 16.2373 36.7825
rtibia 9.53277
rfoot -9.36736 -32.7857
rtoes 20.0763
lfemur -18.3301 3.96481 -12.1646
ltibia 73.7949
lfoot -0.446781 4.73717
ltoes -14.0866
289
root 8.31205 15.3681 17.5792 -180.616 -3.71767 -172.825
lowerback 6.75826 0.369699 4.84109
upperback -4.28764 0.968683 1.22625
thorax -8.27418 0.185139 -1.54659
lowerneck -5.8473 -3.08236 -5.8288
upperneck 11.5145 -4.42393 5.06846
head 4.64595 -2.24006 2.24908
rclavicle 6.4605e-015 -1.23246e-014
rhumerus -39.8599 8.09928 -87.8748
rradius 31.9241
rwrist 16.4103
rhand -4.36277 -52.9672
rfingers 7.12502
rthumb 21.4056 -81.8048
lclavicle 6.4605e-015 -1.23246e-014
lhumerus -42.9749 -1.39084 85.8008
lradius 33.6951
lwrist -17.193
lhand -6.89861 -35.2047
lfingers 7.12502
lthumb 18.9683 -6.10963
rfemur -1.83763 16.366 36.73
rtibia 10.5889
rfoot -10.2065 -33.0316
rtoes 19.065
lfemur -19.6089 3.80307 -12.71
ltibia 74.2951
lfoot -1.75367 4.39901
ltoes -16.4284
290
root 8.32796 15.3562 17.4778 -180.532 -3.66051 -172.955
lowerback 6.71284 0.485381 4.65928
upperback -4.17659 1.10386 1.1913
thorax -8.11999 0.268896 -1.50015
lowerneck -5.96639 -3.20139 -6.08237
upperneck 11.4092 -4.56941 5.32061
head 4.65342 -2.30201 2.35799
rclavicle 1.63003e-014 -1.19271e-015
rhumerus -39.1685 7.87229 -87.4384
rradius 31.2173
rwrist 17.6143
rhand -6.48745 -52.1893
rfingers 7.12502
rthumb 19.3637 -81.2452
lclavicle 1.63003e-014 -1.19271e-015
lhumerus -42.5128 -0.659852 85.5255
lradius 33.3375
lwrist -18.0123
lhand -7.05249 -34.8921
lfingers 7.12502
lthumb 18.8203 -5.78257
rfemur -1.91992 15.9406 36.7912
rtibia 11.545
rfoot -11.5132 -32.7015
rtoes 19.2062
lfemur -20.9833 3.62968 -13.1059
ltibia 74.5855
lfoot -3.13267 4.0929
ltoes -16.6498
291
root 8.34624 15.3499 17.376 -180.419 -3.55812 -173.011
lowerback 6.79196 0.613124 4.54032
upperback -4.16251 1.2687 1.15251
thorax -8.14183 0.356242 -1.49802
lowerneck -6.24462 -3.28484 -6.12737
upperneck 11.5062 -4.67241 5.40649
head 4.73924 -2.34339 2.38069
rclavicle 3.08116e-015 -6.75868e-015
rhumerus -38.5141 7.49227 -87.0516
rradius 30.5219
rwrist 18.6854
rhand -6.30355 -52.3443
rfingers 7.12502
rthumb 19.5405 -81.3823
lclavicle 3.08116e-015 -6.75868e-015
lhumerus -42.0667 0.0508629 85.2212
lradius 32.9656
lwrist -18.4529
lhand -6.76761 -34.7106
lfingers 7.12502
lthumb 19.0943 -5.62786
rfemur -2.00834 15.9862 36.9468
rtibia 12.4143
rfoot -12.605 -32.8884
rtoes 20.0205
lfemur -22.3181 3.49532 -13.3884
ltibia 74.6592
lfoot -4.64022 3.80544
ltoes -15.735
